<?xml version="1.0" encoding="utf-8"?>
<!-- Generator: Adobe Illustrator 21.0.0, SVG Export Plug-In . SVG Version: 6.00 Build 0)  -->
<svg version="1.1" id="Capa_1" xmlns="http://www.w3.org/2000/svg" xmlns:xlink="http://www.w3.org/1999/xlink" x="0px" y="0px"
	 viewBox="0 0 219.4 219.4" style="enable-background:new 0 0 219.4 219.4;" xml:space="preserve">
<style type="text/css">
	.st0{stroke:#000000;stroke-width:12.4591;stroke-miterlimit:10;}
</style>
<path d="M127.5,0H40.6c-6.6,0-12,5.4-12,12v195.4c0,6.6,5.4,12,12,12h138.1c6.6,0,12-5.4,12-12V59.2c0-3.2-1.2-6.2-3.5-8.5
	L135.9,3.4C133.6,1.2,130.7,0,127.5,0z M175.7,204.4H43.6V15h71.8v40.2c0,8.9,7.2,16.1,16.1,16.1h44.2L175.7,204.4L175.7,204.4z
	 M131.5,56.3c-0.6,0-1.1-0.5-1.1-1.1V23.7l35,32.7L131.5,56.3L131.5,56.3z"/>
<line class="st0" x1="69" y1="95.7" x2="149" y2="178.3"/>
<line class="st0" x1="149" y1="95.7" x2="69" y2="178.3"/>
</svg>
